<?xml version="1.0" encoding="utf-8"?>
<!-- Generator: Adobe Illustrator 16.0.0, SVG Export Plug-In . SVG Version: 6.00 Build 0)  -->
<!DOCTYPE svg PUBLIC "-//W3C//DTD SVG 1.1//EN" "http://www.w3.org/Graphics/SVG/1.1/DTD/svg11.dtd">
<svg version="1.1" id="Capa_1" xmlns="http://www.w3.org/2000/svg" xmlns:xlink="http://www.w3.org/1999/xlink" x="0px" y="0px"
	 width="612px" height="792px" viewBox="0 0 612 792" enable-background="new 0 0 612 792" xml:space="preserve">
<g>
	<path fill="#E9E9E0" d="M404.193,90H87.024c-8.831,0-15.989,7.158-15.989,21.048v580.023c0,3.771,7.158,10.929,15.989,10.929
		h437.951c8.83,0,15.989-7.158,15.989-10.929v-459.24c0-7.606-1.017-10.054-2.81-11.857L410.991,92.809
		C409.188,91.017,406.739,90,404.193,90z"/>
	<polygon fill="#D9D7CA" points="409.821,91.65 409.821,221.143 539.314,221.143 	"/>
	<path fill="#2678DB" d="M524.976,702H87.024c-8.831,0-15.989-7.158-15.989-15.988V516.214h469.928v169.798
		C540.964,694.842,533.806,702,524.976,702z"/>
</g>
<text transform="matrix(1 0 0 1 159.5957 674.5996)" fill="#FFFFFF" font-family="'MyriadPro-Regular'" font-size="189.5004" letter-spacing="7">EDI</text>
<g>
	<g>
		<g>
			<path fill="#2678DB" d="M399.372,358.214h-68.854c-7.118,0-12.911,5.793-12.911,12.91v43.035c0,7.118,5.793,12.91,12.911,12.91
				h30.124v8.606h-12.91c-2.376,0-4.304,1.929-4.304,4.304c0,2.376,1.928,4.304,4.304,4.304h34.427c2.376,0,4.304-1.928,4.304-4.304
				c0-2.375-1.928-4.304-4.304-4.304h-12.91v-8.606h30.124c7.118,0,12.91-5.792,12.91-12.91v-43.035
				C412.282,364.007,406.49,358.214,399.372,358.214z M403.676,414.159c0,2.375-1.928,4.303-4.304,4.303h-68.854
				c-2.376,0-4.304-1.928-4.304-4.303v-4.304h77.462V414.159L403.676,414.159z M403.676,401.249h-77.462v-30.125
				c0-2.375,1.928-4.304,4.304-4.304h68.854c2.376,0,4.304,1.929,4.304,4.304V401.249z"/>
			<path fill="#2678DB" d="M291.786,358.214c4.397,0,8.985-0.292,13.194-0.567c2.375-0.155,4.166-2.203,4.011-4.579
				c-0.155-2.375-2.203-4.097-4.579-4.011c-4.027,0.267-8.426,0.551-12.626,0.551c-45.651,0-77.462-15.88-77.462-30.124v-25.976
				c13.797,12.927,42.905,21.672,77.462,21.672s63.665-8.745,77.462-21.672v25.976c0,7.901-9.391,16.077-25.123,21.879
				c-2.229,0.825-3.365,3.296-2.548,5.525c0.637,1.738,2.28,2.814,4.036,2.814c0.499,0,0.999-0.086,1.489-0.267
				c9.536-3.512,16.956-7.815,22.146-12.652v8.521c0,2.376,1.928,4.304,4.304,4.304c2.375,0,4.304-1.928,4.304-4.304v-68.855
				c0-21.715-37.811-38.73-86.069-38.73s-86.068,17.016-86.068,38.73v129.104c0,21.716,37.81,38.731,86.068,38.731
				c4.476,0,8.864-0.146,13.16-0.431c2.367-0.163,4.165-2.212,4.002-4.588c-0.163-2.366-2.074-4.036-4.588-4.002
				c-4.097,0.275-8.288,0.413-12.574,0.413c-45.651,0-77.462-15.88-77.462-30.124v-25.976
				c13.797,12.928,42.905,21.672,77.462,21.672c4.441,0,8.942-0.284,13.194-0.568c2.375-0.154,4.166-2.212,4.011-4.578
				c-0.155-2.376-2.203-4.105-4.579-4.011c-4.071,0.275-8.374,0.551-12.626,0.551c-45.651,0-77.462-15.88-77.462-30.125v-25.976
				C228.121,349.47,257.229,358.214,291.786,358.214z M291.786,246.324c45.651,0,77.462,15.88,77.462,30.124
				c0,14.245-31.811,30.125-77.462,30.125s-77.462-15.88-77.462-30.125C214.324,262.204,246.135,246.324,291.786,246.324z"/>
		</g>
	</g>
</g>
</svg>
