<svg id="Icons" height="512" viewBox="0 0 74 74" width="512" xmlns="http://www.w3.org/2000/svg"><path d="m37 72a1 1 0 0 1 -.488-.127c-17.383-9.731-27.76-25.373-27.76-41.854v-15.695a1 1 0 0 1 .32-.734.987.987 0 0 1 .757-.263c11.6.9 20.222-2.677 26.369-10.925a1.036 1.036 0 0 1 1.6 0c6.152 8.248 14.786 11.823 26.373 10.925a1 1 0 0 1 1.077 1v15.692a42.508 42.508 0 0 1 -7.36 23.507 58.923 58.923 0 0 1 -20.4 18.346 1 1 0 0 1 -.488.128zm-26.248-56.607v14.626c0 15.589 9.8 30.444 26.248 39.832a56.707 56.707 0 0 0 19.222-17.432 40.515 40.515 0 0 0 7.026-22.4v-14.626c-11.3.63-19.917-2.9-26.248-10.76-6.329 7.858-14.937 11.39-26.248 10.76z"/><path d="m37 65.015a1 1 0 0 1 -.536-.156c-13.8-8.774-21.712-21.473-21.712-34.84v-9.619a1 1 0 0 1 .945-1 32.553 32.553 0 0 0 20.633-8.239 1 1 0 0 1 1.34 0 32.553 32.553 0 0 0 20.63 8.239 1 1 0 0 1 .945 1v9.617a36.533 36.533 0 0 1 -6.357 20.186 51.746 51.746 0 0 1 -15.352 14.656 1 1 0 0 1 -.536.156zm-20.248-43.676v8.68c0 12.5 7.37 24.423 20.248 32.807a49.465 49.465 0 0 0 14.225-13.726 34.541 34.541 0 0 0 6.023-19.079v-8.68a34.379 34.379 0 0 1 -20.248-8.106 34.379 34.379 0 0 1 -20.248 8.104z"/><path d="m32.776 44.112a1 1 0 0 1 -.707-.293l-5.776-5.776a1 1 0 0 1 1.414-1.414l5.069 5.071 13.517-13.519a1 1 0 0 1 1.414 1.419l-14.224 14.219a1 1 0 0 1 -.707.293z"/></svg>