<svg height="503pt" viewBox="0 0 503.68805 503" width="503pt" xmlns="http://www.w3.org/2000/svg"><path d="m171.84375 359.816406h160v16h-160zm0 0"/><path d="m171.84375 391.816406h160v16h-160zm0 0"/><path d="m203.84375 423.816406h96v16h-96zm0 0"/><path d="m342.949219 210.144531c-2.894531-6.625-8.011719-12.03125-14.464844-15.289062-2.667969-1.492188-5.097656-3.378907-7.199219-5.597657-1.503906-2.730468-2.582031-5.675781-3.199218-8.730468-1.058594-7.113282-4.585938-13.628906-9.96875-18.398438-6.132813-3.632812-13.34375-4.992187-20.378907-3.839844-3.132812.359376-6.300781.242188-9.398437-.351562-2.6875-1.304688-5.167969-2.996094-7.359375-5.027344-5.121094-5.167968-11.890625-8.386718-19.136719-9.09375-7.269531.699219-14.066406 3.929688-19.199219 9.128906-2.199219 2.03125-4.683593 3.726563-7.375 5.03125-3.09375.578126-6.253906.695313-9.378906.34375-7.035156-1.160156-14.257813.199219-20.390625 3.839844-5.367188 4.761719-8.890625 11.257813-9.953125 18.351563-.621094 3.054687-1.699219 6-3.199219 8.734375-2.105468 2.21875-4.53125 4.105468-7.199218 5.601562-6.457032 3.257813-11.574219 8.667969-14.464844 15.296875-1.515625 6.894531-.574219 14.101563 2.664062 20.375 1.359375 2.945313 2.257813 6.078125 2.664063 9.296875-.390625 3.210938-1.269531 6.34375-2.609375 9.289063-3.238282 6.273437-4.179688 13.484375-2.664063 20.382812 2.894531 6.625 8.011719 12.03125 14.464844 15.289063 2.671875 1.492187 5.097656 3.378906 7.199219 5.597656 1.503906 2.730469 2.585937 5.675781 3.203125 8.730469 1.054687 7.113281 4.585937 13.628906 9.964843 18.398437 6.136719 3.621094 13.34375 4.980469 20.378907 3.839844 3.132812-.359375 6.300781-.242188 9.398437.351562 2.6875 1.308594 5.164063 3 7.359375 5.023438 5.125 5.171875 11.890625 8.390625 19.136719 9.097656 7.273438-.703125 14.066406-3.933594 19.199219-9.128906 2.199219-2.027344 4.683593-3.722656 7.378906-5.03125 3.089844-.585938 6.25-.703125 9.375-.34375 7.035156 1.160156 14.257813-.199219 20.390625-3.839844 5.367188-4.761718 8.890625-11.257812 9.953125-18.351562.621094-3.058594 1.703125-6 3.199219-8.738282 2.105468-2.214843 4.53125-4.105468 7.199218-5.597656 6.457032-3.257812 11.574219-8.667968 14.464844-15.296875 1.515625-6.894531.574219-14.101562-2.664062-20.375-1.359375-2.945312-2.257813-6.082031-2.664063-9.296875.390625-3.210937 1.269531-6.34375 2.609375-9.289062 3.238282-6.273438 4.179688-13.484375 2.664063-20.382813zm-17.601563 44.65625c1.542969 3.019531 2.363282 6.359375 2.398438 9.75-.679688 2.097657-4.535156 4.59375-7.941406 6.800781-4.367188 2.472657-8.246094 5.726563-11.441407 9.601563-2.730469 4.28125-4.652343 9.027344-5.679687 14-.515625 3.472656-1.867188 6.765625-3.945313 9.597656-3.265625 1.070313-6.738281 1.34375-10.132812.800781-5.074219-.5625-10.210938-.183593-15.144531 1.121094-4.632813 1.808594-8.886719 4.46875-12.535157 7.847656-3.203125 2.589844-6.769531 5.519532-9.058593 5.519532-2.289063 0-5.878907-2.929688-9.054688-5.519532-3.644531-3.375-7.894531-6.035156-12.519531-7.839843-3.144531-.949219-6.414063-1.390625-9.695313-1.3125-1.882812 0-3.714844.097656-5.464844.175781-3.394531.546875-6.871093.273438-10.136718-.800781-2.074219-2.832031-3.429688-6.125-3.945313-9.597657-1.019531-4.976562-2.949219-9.722656-5.6875-14-3.1875-3.875-7.0625-7.128906-11.429687-9.601562-3.410156-2.207031-7.265625-4.703125-7.945313-6.792969.035157-3.394531.855469-6.734375 2.398438-9.757812 2.109375-4.730469 3.335937-9.804688 3.625-14.976563-.296875-5.175781-1.539063-10.253906-3.65625-14.984375-1.542969-3.023437-2.363281-6.359375-2.398438-9.753906.679688-2.09375 4.535157-4.589844 7.941407-6.796875 4.371093-2.476562 8.246093-5.730469 11.441406-9.601562 2.730468-4.28125 4.65625-9.027344 5.679687-14 .515625-3.472657 1.871094-6.769532 3.945313-9.601563 3.265625-1.074219 6.742187-1.347656 10.136718-.796875 5.074219.554688 10.207032.175781 15.140626-1.121094 4.632812-1.808594 8.886718-4.472656 12.539062-7.847656 3.199219-2.59375 6.765625-5.519531 9.054688-5.519531 2.289062 0 5.878906 2.925781 9.054687 5.519531 3.648437 3.375 7.894531 6.03125 12.519531 7.839844 4.945313 1.300781 10.082032 1.683594 15.160156 1.136718 3.394532-.542968 6.871094-.269531 10.136719.800782 2.078125 2.832031 3.429688 6.125 3.945313 9.597656 1.023437 4.976562 2.949218 9.71875 5.679687 14 3.195313 3.871094 7.070313 7.125 11.441407 9.601562 3.40625 2.207032 7.261718 4.703126 7.941406 6.789063-.035156 3.398437-.855469 6.738281-2.398438 9.761719-2.113281 4.730468-3.34375 9.804687-3.640625 14.976562.300781 5.175782 1.539063 10.253906 3.65625 14.984375zm0 0"/><path d="m251.84375 183.816406c-30.925781 0-56 25.070313-56 56 0 30.925782 25.074219 56 56 56 30.929688 0 56-25.074218 56-56-.039062-30.910156-25.089844-55.960937-56-56zm0 96c-22.089844 0-40-17.910156-40-40s17.910156-40 40-40 40 17.910156 40 40c-.027344 22.078125-17.917969 39.972656-40 40zm0 0"/><path d="m427.324219 311.753906c.214843 0 1.191406.0625 2.761719.0625 8.796874 0 36.390624-1.511718 54.246093-19.359375 21.023438-21.03125 19.375-55.554687 19.296875-57.007812l-.394531-7.152344-7.160156-.394531c-16.316407-.542969-32.472657 3.371094-46.734375 11.320312 1.410156-8.960937 2.210937-18.007812 2.398437-27.078125l4.050781-2.046875c1.304688-.664062 32-16.488281 39.726563-45.21875 7.726563-28.726562-10.984375-57.800781-11.792969-59.023437l-3.910156-6-6.402344 3.199219c-14.429687 7.726562-26.484375 19.234374-34.878906 33.289062-3.265625-8.457031-7.105469-16.679688-11.488281-24.617188l2.554687-3.902343c.796875-1.214844 19.488282-30.289063 11.78125-59.023438-7.703125-28.738281-38.398437-44.554687-39.710937-45.214843l-6.398438-3.203126-3.921875 6c-8.648437 13.890626-13.347656 29.875-13.601562 46.234376-3.023438-2.449219-6.117188-4.816407-9.285156-7.105469l-9.28125 12.960937c66.433593 47.734375 93.394531 133.589844 66.175781 210.734375l-.152344.402344c-9.484375 26.613281-25.011719 50.667969-45.359375 70.269531v-236.0625h-256v236.0625c-20.347656-19.609375-35.875-43.667968-45.367188-70.285156l-.136718-.363281c-27.230469-77.148438-.273438-163.015625 66.167968-210.757813l-9.328124-13c-3.199219 2.28125-6.265626 4.65625-9.28125 7.09375-.253907-16.355468-4.953126-32.335937-13.597657-46.222656l-3.921875-6-6.398437 3.242188c-1.304688.660156-32 16.484374-39.71875 45.214843-7.722657 28.726563 11.03125 57.808594 11.832031 59.015625l2.542969 3.894532c-4.375 7.949218-8.207031 16.183593-11.472657 24.648437-8.390624-14.050781-20.445312-25.550781-34.871093-33.28125l-6.402344-3.199219-3.917969 6c-.800781 1.21875-19.488281 30.289063-11.792968 59.023438 7.695312 28.738281 38.398437 44.554687 39.71875 45.21875l4.058593 2.054687c.191407 9.066407.992188 18.105469 2.398438 27.0625-14.261719-7.957031-30.425781-11.878906-46.75-11.335937l-7.152344.394531-.3945312 7.152344c-.078125 1.453125-1.7265628 36 19.3046872 57.007812 17.847657 17.855469 45.417969 19.359375 54.242188 19.359375 1.597656 0 2.542969-.046875 2.765625-.0625l4.441406-.242187c4.714844 7.761719 9.960938 15.191406 15.695312 22.230469-16.421874.28125-32.4375 5.121093-46.265624 13.984374l-5.8125 3.914063 3.101562 6.28125c.664062 1.335937 16.488281 32.742187 45.242188 40.671875 4.71875 1.257812 9.585937 1.886719 14.46875 1.863281 5.597656-.046875 11.171874-.753906 16.601562-2.105469v65.464844c.027344 22.078125 17.917969 39.972656 40 40h240c22.082031-.027344 39.972656-17.921875 40-40v-40h-64v-26.214844c6.332031 1.816407 12.878906 2.777344 19.464844 2.847657 4.894531.023437 9.773437-.601563 14.503906-1.863281 28.71875-7.921876 44.535156-39.328126 45.199219-40.664063l3.105469-6.28125-5.808594-3.914063c-14.664063-9.445312-31.828125-14.265624-49.265625-13.832031 5.785156-7.089843 11.074219-14.574219 15.824219-22.398437zm-32.28125-250.53125c-2.507813-13.410156-.375-27.273437 6.050781-39.3125 11.585938 7.207032 20.359375 18.15625 24.863281 31.035156 2.5 13.402344.375 27.257813-6.03125 39.292969-11.570312-7.21875-20.34375-18.152343-24.882812-31.015625zm54.113281 91.203125c4.535156-12.859375 13.304688-23.792969 24.871094-31.007812 6.429687 12.03125 8.554687 25.902343 6.015625 39.308593-4.535157 12.859376-13.304688 23.796876-24.871094 31.015626-6.410156-12.03125-8.539063-25.882813-6.039063-39.285157zm1.246094 106.0625c10.371094-8.871093 23.445312-13.949219 37.082031-14.398437-.449219 13.636718-5.546875 26.710937-14.449219 37.054687-10.359375 8.859375-23.421875 13.9375-37.046875 14.398438.464844-13.613281 5.539063-26.667969 14.390625-37.023438zm-372.644532-205.542969c4.535157-12.871093 13.3125-23.808593 24.894532-31.023437 6.417968 12.035156 8.535156 25.902344 5.992187 39.300781-4.539062 12.871094-13.316406 23.8125-24.898437 31.035156-6.421875-12.039062-8.535156-25.910156-5.988282-39.3125zm-29.242187 138.796876c-11.570313-7.210938-20.339844-18.148438-24.871094-31.007813-2.507812-13.410156-.378906-27.273437 6.03125-39.316406 11.570313 7.21875 20.34375 18.152343 24.878907 31.015625 2.511718 13.40625.378906 27.273437-6.039063 39.308594zm-17.839844 89.402343c-8.863281-10.363281-13.9375-23.429687-14.398437-37.054687 13.625.460937 26.691406 5.539062 37.054687 14.398437 8.871094 10.363281 13.949219 23.4375 14.398438 37.070313-13.632813-.441406-26.707031-5.527344-37.054688-14.414063zm93.167969 100.6875c-8.652344 2.886719-17.933594 3.347657-26.832031 1.328125-13.058594-4.800781-24.085938-13.921875-31.246094-25.847656 11.984375-6.671875 25.941406-8.90625 39.414063-6.304688 7.015624 2.144532 13.417968 5.9375 18.664062 11.0625zm40 105.984375c-13.253906 0-24-10.746094-24-24v-344h224v344c-.015625 8.65625 2.792969 17.082032 8 24zm264-48v24c0 13.253906-10.746094 24-24 24s-24-10.746094-24-24v-24zm12.945312-82.496094c-7.148437 11.917969-18.160156 21.03125-31.199218 25.832032-9.921875 2.175781-20.261719 1.398437-29.746094-2.242188v-17.300781l.566406.566406c5.726563-6.167969 12.984375-10.707031 21.035156-13.160156 13.445313-2.546875 27.363282-.316406 39.34375 6.304687zm0 0"/></svg>