<svg id="Flat" height="512" viewBox="0 0 512 512" width="512" xmlns="http://www.w3.org/2000/svg"><path d="m376 488h-304a32 32 0 0 1 -32-32v-400a32 32 0 0 1 32-32h240l96 96v336a32 32 0 0 1 -32 32z" fill="#e9eef2"/><g fill="#c3c6c7"><path d="m408 120h-64a32 32 0 0 1 -32-32v-64z"/><path d="m360 176h-192a8 8 0 0 1 0-16h192a8 8 0 0 1 0 16z"/><path d="m248 224h-160a8 8 0 0 1 0-16h160a8 8 0 0 1 0 16z"/><path d="m280 272h-64a8 8 0 0 1 0-16h64a8 8 0 0 1 0 16z"/><path d="m264 320h-176a8 8 0 0 1 0-16h176a8 8 0 0 1 0 16z"/><path d="m136 176h-48a8 8 0 0 1 0-16h48a8 8 0 0 1 0 16z"/><path d="m360 224h-80a8 8 0 0 1 0-16h80a8 8 0 0 1 0 16z"/><path d="m184 272h-96a8 8 0 0 1 0-16h96a8 8 0 0 1 0 16z"/><path d="m248 416h-64a8 8 0 0 1 0-16h64a8 8 0 0 1 0 16z"/><path d="m152 416h-64a8 8 0 0 1 0-16h64a8 8 0 0 1 0 16z"/><path d="m136 368h-48a8 8 0 0 1 0-16h48a8 8 0 0 1 0 16z"/><path d="m184 128h-96a8 8 0 0 1 0-16h96a8 8 0 0 1 0 16z"/><path d="m264 368h-96a8 8 0 0 1 0-16h96a8 8 0 0 1 0 16z"/></g><path d="m280 488h192c0-57.4-22.395-106.958-54.793-130.089a56 56 0 1 0 -82.414 0c-32.393 23.131-54.793 72.689-54.793 130.089z" fill="#6ed2f0"/></svg>