<svg id="Capa_1" enable-background="new 0 0 512 512" height="512" viewBox="0 0 512 512" width="512" xmlns="http://www.w3.org/2000/svg"><g><g><path d="m202.825 258.247c-28.622 0-57.244-.92-85.666-2.759-7.451-.482-13.625-5.956-14.997-13.295-4.424-23.66-5.878-47.664-4.323-71.347 1.768-26.923 23.484-48.064 50.514-49.176 36.145-1.488 72.798-1.488 108.942 0 27.03 1.112 48.746 22.253 50.514 49.176 1.556 23.683.101 47.687-4.323 71.347-1.372 7.339-7.546 12.813-14.997 13.295-28.42 1.839-57.042 2.759-85.664 2.759zm-70.582-34.578c46.895 2.557 94.27 2.557 141.165 0 2.306-16.887 2.916-33.883 1.812-50.683-.671-10.227-8.954-18.259-19.267-18.684-35.253-1.45-71.003-1.45-106.256 0-10.312.424-18.595 8.457-19.267 18.684-1.103 16.799-.493 33.795 1.813 50.683z" fill="#f6e266"/><path d="m140.372 122.598c-23.213 4.491-40.94 24.038-42.532 48.247-1.551 23.679-.098 47.684 4.328 71.347 1.372 7.34 7.545 12.811 14.991 13.293 1.323.082 2.637.171 3.96.245-2.245-2.45-3.829-5.618-4.45-9.186-4.425-25.606-5.879-51.595-4.319-77.234 1.232-20.404 12.247-37.739 28.022-46.712z" fill="#ffd064"/><path d="m394.125 373.914c.204 30.864-1.396 61.728-4.785 92.592-2.466 22.429-20.756 39.813-43.283 41.176-95.491 5.756-190.973 5.756-286.463 0-22.528-1.363-40.817-18.747-43.283-41.176-3.389-30.864-4.989-61.728-4.785-92.592.18-27.41 1.772-54.82 4.785-82.222 2.466-22.438 20.756-39.821 43.283-41.176 95.491-5.765 190.973-5.765 286.463 0 22.528 1.355 40.817 18.739 43.283 41.176 3.013 27.402 4.605 54.812 4.785 82.222z" fill="#9d6b6b"/><path d="m85.744 509.116c-8.72-.433-17.433-.914-26.153-1.437-22.528-1.363-40.817-18.747-43.283-41.176-6.401-58.274-6.401-116.548 0-174.814 2.466-22.438 20.756-39.821 43.283-41.176 8.712-.523 17.424-1.004 26.136-1.437-13.66 7.479-23.385 21.278-25.181 37.608-6.769 61.605-6.769 123.211 0 184.816 1.797 16.338 11.53 30.137 25.198 37.616z" fill="#8b5e5e"/><path d="m394.125 373.914c-3.56 3.568-7.888 6.442-12.835 8.345-26.174 10.066-69.033 25.037-116.909 35.71-40.528 9.035-82.583 9.035-123.111 0-47.876-10.673-90.735-25.644-116.909-35.71-4.948-1.903-9.275-4.777-12.835-8.345.18-27.41 1.772-54.82 4.785-82.222 2.466-22.438 20.756-39.821 43.283-41.176 95.491-5.765 190.973-5.765 286.463 0 22.528 1.355 40.817 18.739 43.283 41.176 3.013 27.402 4.605 54.812 4.785 82.222z" fill="#8b5e5e"/><path d="m381.289 363.983c-25.788 9.918-67.774 24.597-114.797 35.236-41.651 9.423-84.862 9.556-126.524.184-28.265-6.358-54.737-14.191-77.003-21.596-15.032-4.997-28.153-9.806-38.605-13.823-16.092-6.19-25.694-22.724-23.204-39.789 5.813-39.895 14.542-70.726 21.18-90.33 5.07-14.966 18.339-25.63 34.032-27.41 12.925-1.47 30.056-3.266 49.227-4.924 30.154-2.605 65.37-4.85 97.23-4.85 52.118 0 113.209 6.001 146.457 9.774 15.693 1.78 28.962 12.444 34.032 27.41 6.638 19.605 15.367 50.436 21.18 90.33 2.491 17.065-7.111 33.599-23.205 39.788z" fill="#9d6b6b"/><path d="m62.966 377.807c-15.032-4.997-28.153-9.806-38.605-13.823-16.093-6.19-25.695-22.724-23.205-39.789 5.813-39.895 14.542-70.726 21.18-90.33 5.07-14.966 18.339-25.63 34.032-27.41 12.925-1.47 30.056-3.266 49.227-4.924-49.227 4.923-69.654 149.251-42.629 176.276z" fill="#8b5e5e"/><path d="m220.985 445.589h-36.319c-10.695 0-19.366-8.67-19.366-19.366v-50.921c0-10.695 8.67-19.366 19.366-19.366h36.319c10.695 0 19.366 8.67 19.366 19.366v50.921c-.001 10.696-8.671 19.366-19.366 19.366z" fill="#f6e266"/><path d="m203.006 445.593h-18.336c-10.699 0-19.37-8.671-19.37-19.37v-50.92c0-10.699 8.671-19.37 19.37-19.37h18.336c-10.699 0-19.37 8.671-19.37 19.37v50.92c0 10.699 8.671 19.37 19.37 19.37z" fill="#ffd064"/></g><g><circle cx="379.275" cy="131.96" fill="#d3effb" r="124.38"/><path d="m401.008 254.538c-6.887 1.194-13.975 1.806-21.201 1.806-68.694 0-124.384-55.69-124.384-124.384s55.69-124.385 124.384-124.385c7.225 0 14.313.613 21.201 1.806-58.585 10.057-103.173 61.11-103.173 122.579s44.588 112.521 103.173 122.578z" fill="#9dc6fb"/><path d="m379.275 147.805h-57.787c-8.751 0-15.845-7.094-15.845-15.845s7.094-15.845 15.845-15.845h57.787c8.751 0 0 7.094 0 15.845z" fill="#365e7d"/><path d="m379.275 147.805c-8.751 0-15.845-7.094-15.845-15.845v-40.459c0-8.751 7.094-15.845 15.845-15.845s15.845 7.094 15.845 15.845v40.459c0 8.751-7.094 15.845-15.845 15.845z" fill="#2b4d66"/><g fill="#365e7d"><g><path d="m379.275 44.154c-4.186 0-7.579-3.393-7.579-7.579v-25.074c0-4.186 3.393-7.579 7.579-7.579s7.579 3.393 7.579 7.579v25.074c.001 4.186-3.392 7.579-7.579 7.579z"/><path d="m379.275 259.998c-4.186 0-7.579-3.393-7.579-7.579v-25.074c0-4.186 3.393-7.579 7.579-7.579s7.579 3.393 7.579 7.579v25.074c.001 4.186-3.392 7.579-7.579 7.579z"/></g><g><path d="m499.734 139.539h-25.074c-4.186 0-7.579-3.393-7.579-7.579s3.393-7.579 7.579-7.579h25.074c4.186 0 7.579 3.393 7.579 7.579s-3.393 7.579-7.579 7.579z"/><path d="m283.89 139.539h-25.074c-4.186 0-7.579-3.393-7.579-7.579s3.393-7.579 7.579-7.579h25.074c4.186 0 7.579 3.393 7.579 7.579s-3.393 7.579-7.579 7.579z"/></g><g><path d="m470.785 86.711c-2.619 0-5.167-1.359-6.571-3.791-2.093-3.625-.851-8.261 2.774-10.354l12.818-7.4c3.623-2.092 8.261-.851 10.354 2.775 2.093 3.625.851 8.261-2.774 10.354l-12.818 7.4c-1.194.688-2.497 1.016-3.783 1.016z"/><path d="m274.961 199.77c-2.619 0-5.166-1.359-6.571-3.791-2.093-3.625-.851-8.261 2.774-10.354l12.817-7.4c3.624-2.092 8.259-.851 10.354 2.774 2.093 3.625.851 8.261-2.774 10.354l-12.817 7.4c-1.193.689-2.497 1.017-3.783 1.017z"/></g><g><path d="m432.097 48.037c-1.286 0-2.59-.328-3.783-1.017-3.625-2.093-4.867-6.729-2.774-10.354l7.401-12.817c2.093-3.625 6.729-4.867 10.354-2.774s4.867 6.729 2.774 10.354l-7.401 12.817c-1.404 2.432-3.952 3.791-6.571 3.791z"/><path d="m319.038 243.861c-1.286 0-2.589-.327-3.783-1.017-3.625-2.093-4.867-6.728-2.774-10.354l7.4-12.817c2.092-3.625 6.727-4.868 10.354-2.774 3.625 2.093 4.867 6.728 2.774 10.354l-7.4 12.817c-1.403 2.432-3.951 3.791-6.571 3.791z"/></g><g><path d="m326.452 48.037c-2.619 0-5.167-1.359-6.571-3.791l-7.4-12.817c-2.093-3.625-.851-8.261 2.774-10.354 3.624-2.092 8.261-.851 10.354 2.775l7.4 12.817c2.093 3.625.851 8.261-2.774 10.354-1.193.688-2.497 1.016-3.783 1.016z"/><path d="m439.512 243.861c-2.619 0-5.166-1.359-6.571-3.791l-7.401-12.817c-2.093-3.625-.852-8.261 2.774-10.354 3.624-2.093 8.259-.851 10.354 2.774l7.401 12.817c2.093 3.625.852 8.261-2.774 10.354-1.194.689-2.497 1.017-3.783 1.017z"/></g><g><path d="m287.764 86.711c-1.286 0-2.59-.327-3.783-1.017l-12.817-7.4c-3.625-2.093-4.867-6.728-2.774-10.354 2.092-3.625 6.73-4.868 10.354-2.774l12.817 7.4c3.625 2.093 4.867 6.728 2.774 10.354-1.403 2.431-3.951 3.791-6.571 3.791z"/><path d="m483.589 199.77c-1.286 0-2.589-.327-3.783-1.017l-12.818-7.4c-3.625-2.093-4.867-6.728-2.774-10.354 2.092-3.626 6.727-4.868 10.354-2.775l12.818 7.4c3.625 2.093 4.867 6.728 2.774 10.354-1.404 2.432-3.952 3.792-6.571 3.792z"/></g></g><path d="m379.275 263.92c-72.763 0-131.96-59.197-131.96-131.96s59.197-131.96 131.96-131.96 131.96 59.197 131.96 131.96-59.196 131.96-131.96 131.96zm0-248.761c-64.404 0-116.801 52.397-116.801 116.801s52.397 116.801 116.801 116.801 116.801-52.397 116.801-116.801-52.396-116.801-116.801-116.801z" fill="#e7a561"/></g></g></svg>